<svg id="visual" viewBox="0 0 960 540" width="960" height="540" xmlns="http://www.w3.org/2000/svg" xmlns:xlink="http://www.w3.org/1999/xlink" version="1.1"><rect x="0" y="0" width="960" height="540" fill="#140021"></rect><path d="M487 0L540 0L540 34L596 34L596 68L512 68L512 101L643 101L643 135L515 135L515 169L590 169L590 203L496 203L496 236L543 236L543 270L629 270L629 304L662 304L662 338L586 338L586 371L465 371L465 405L545 405L545 439L670 439L670 473L613 473L613 506L560 506L560 540L0 540L0 506L0 506L0 473L0 473L0 439L0 439L0 405L0 405L0 371L0 371L0 338L0 338L0 304L0 304L0 270L0 270L0 236L0 236L0 203L0 203L0 169L0 169L0 135L0 135L0 101L0 101L0 68L0 68L0 34L0 34L0 0L0 0Z" fill="#9900ff"></path><path d="M426 0L251 0L251 34L353 34L353 68L417 68L417 101L304 101L304 135L251 135L251 169L290 169L290 203L297 203L297 236L294 236L294 270L336 270L336 304L387 304L387 338L388 338L388 371L321 371L321 405L284 405L284 439L382 439L382 473L420 473L420 506L368 506L368 540L0 540L0 506L0 506L0 473L0 473L0 439L0 439L0 405L0 405L0 371L0 371L0 338L0 338L0 304L0 304L0 270L0 270L0 236L0 236L0 203L0 203L0 169L0 169L0 135L0 135L0 101L0 101L0 68L0 68L0 34L0 34L0 0L0 0Z" fill="#7700c6"></path><path d="M264 0L225 0L225 34L218 34L218 68L180 68L180 101L167 101L167 135L270 135L270 169L235 169L235 203L214 203L214 236L94 236L94 270L210 270L210 304L249 304L249 338L263 338L263 371L137 371L137 405L293 405L293 439L263 439L263 473L239 473L239 506L183 506L183 540L0 540L0 506L0 506L0 473L0 473L0 439L0 439L0 405L0 405L0 371L0 371L0 338L0 338L0 304L0 304L0 270L0 270L0 236L0 236L0 203L0 203L0 169L0 169L0 135L0 135L0 101L0 101L0 68L0 68L0 34L0 34L0 0L0 0Z" fill="#560090"></path></svg>