<svg id="visual" viewBox="0 0 900 600" width="900" height="600" xmlns="http://www.w3.org/2000/svg" xmlns:xlink="http://www.w3.org/1999/xlink" version="1.1"><rect x="0" y="0" width="900" height="600" fill="#001220"></rect><path d="M0 244L21.5 260.3C43 276.7 86 309.3 128.8 317.7C171.7 326 214.3 310 257.2 313.7C300 317.3 343 340.7 385.8 340.3C428.7 340 471.3 316 514.2 304C557 292 600 292 642.8 293.5C685.7 295 728.3 298 771.2 311C814 324 857 347 878.5 358.5L900 370L900 0L878.5 0C857 0 814 0 771.2 0C728.3 0 685.7 0 642.8 0C600 0 557 0 514.2 0C471.3 0 428.7 0 385.8 0C343 0 300 0 257.2 0C214.3 0 171.7 0 128.8 0C86 0 43 0 21.5 0L0 0Z" fill="#c62368"></path><path d="M0 234L21.5 243.2C43 252.3 86 270.7 128.8 271.2C171.7 271.7 214.3 254.3 257.2 238C300 221.7 343 206.3 385.8 211.8C428.7 217.3 471.3 243.7 514.2 244.7C557 245.7 600 221.3 642.8 213.5C685.7 205.7 728.3 214.3 771.2 219.7C814 225 857 227 878.5 228L900 229L900 0L878.5 0C857 0 814 0 771.2 0C728.3 0 685.7 0 642.8 0C600 0 557 0 514.2 0C471.3 0 428.7 0 385.8 0C343 0 300 0 257.2 0C214.3 0 171.7 0 128.8 0C86 0 43 0 21.5 0L0 0Z" fill="#d53867"></path><path d="M0 157L21.5 155C43 153 86 149 128.8 150.2C171.7 151.3 214.3 157.7 257.2 162.7C300 167.7 343 171.3 385.8 174.7C428.7 178 471.3 181 514.2 175.5C557 170 600 156 642.8 150.5C685.7 145 728.3 148 771.2 167.5C814 187 857 223 878.5 241L900 259L900 0L878.5 0C857 0 814 0 771.2 0C728.3 0 685.7 0 642.8 0C600 0 557 0 514.2 0C471.3 0 428.7 0 385.8 0C343 0 300 0 257.2 0C214.3 0 171.7 0 128.8 0C86 0 43 0 21.5 0L0 0Z" fill="#e34c67"></path><path d="M0 138L21.5 143.5C43 149 86 160 128.8 164.5C171.7 169 214.3 167 257.2 158.8C300 150.7 343 136.3 385.8 138.2C428.7 140 471.3 158 514.2 163C557 168 600 160 642.8 160.7C685.7 161.3 728.3 170.7 771.2 160.3C814 150 857 120 878.5 105L900 90L900 0L878.5 0C857 0 814 0 771.2 0C728.3 0 685.7 0 642.8 0C600 0 557 0 514.2 0C471.3 0 428.7 0 385.8 0C343 0 300 0 257.2 0C214.3 0 171.7 0 128.8 0C86 0 43 0 21.5 0L0 0Z" fill="#ef5f67"></path><path d="M0 114L21.5 105C43 96 86 78 128.8 74.3C171.7 70.7 214.3 81.3 257.2 90.2C300 99 343 106 385.8 102.8C428.7 99.7 471.3 86.3 514.2 80.2C557 74 600 75 642.8 75.8C685.7 76.7 728.3 77.3 771.2 77.2C814 77 857 76 878.5 75.5L900 75L900 0L878.5 0C857 0 814 0 771.2 0C728.3 0 685.7 0 642.8 0C600 0 557 0 514.2 0C471.3 0 428.7 0 385.8 0C343 0 300 0 257.2 0C214.3 0 171.7 0 128.8 0C86 0 43 0 21.5 0L0 0Z" fill="#fa7268"></path></svg>