<svg id="visual" viewBox="0 0 960 540" width="960" height="540" xmlns="http://www.w3.org/2000/svg" xmlns:xlink="http://www.w3.org/1999/xlink" version="1.1"><path d="M0 77L87 77L87 50L175 50L175 71L262 71L262 33L349 33L349 82L436 82L436 50L524 50L524 77L611 77L611 39L698 39L698 71L785 71L785 82L873 82L873 93L960 93L960 82L960 0L960 0L873 0L873 0L785 0L785 0L698 0L698 0L611 0L611 0L524 0L524 0L436 0L436 0L349 0L349 0L262 0L262 0L175 0L175 0L87 0L87 0L0 0Z" fill="#fa7268"></path><path d="M0 239L87 239L87 141L175 141L175 266L262 266L262 120L349 120L349 152L436 152L436 206L524 206L524 287L611 287L611 179L698 179L698 314L785 314L785 244L873 244L873 201L960 201L960 228L960 80L960 91L873 91L873 80L785 80L785 69L698 69L698 37L611 37L611 75L524 75L524 48L436 48L436 80L349 80L349 31L262 31L262 69L175 69L175 48L87 48L87 75L0 75Z" fill="#ea5e66"></path><path d="M0 368L87 368L87 276L175 276L175 314L262 314L262 217L349 217L349 255L436 255L436 347L524 347L524 347L611 347L611 271L698 271L698 368L785 368L785 368L873 368L873 320L960 320L960 341L960 226L960 199L873 199L873 242L785 242L785 312L698 312L698 177L611 177L611 285L524 285L524 204L436 204L436 150L349 150L349 118L262 118L262 264L175 264L175 139L87 139L87 237L0 237Z" fill="#d84a64"></path><path d="M0 422L87 422L87 390L175 390L175 390L262 390L262 325L349 325L349 314L436 314L436 395L524 395L524 428L611 428L611 320L698 320L698 449L785 449L785 476L873 476L873 422L960 422L960 444L960 339L960 318L873 318L873 366L785 366L785 366L698 366L698 269L611 269L611 345L524 345L524 345L436 345L436 253L349 253L349 215L262 215L262 312L175 312L175 274L87 274L87 366L0 366Z" fill="#c53762"></path><path d="M0 541L87 541L87 541L175 541L175 541L262 541L262 541L349 541L349 541L436 541L436 541L524 541L524 541L611 541L611 541L698 541L698 541L785 541L785 541L873 541L873 541L960 541L960 541L960 442L960 420L873 420L873 474L785 474L785 447L698 447L698 318L611 318L611 426L524 426L524 393L436 393L436 312L349 312L349 323L262 323L262 388L175 388L175 388L87 388L87 420L0 420Z" fill="#b0235f"></path></svg>